<svg width="20" height="20" viewBox="0 0 20 20" fill="none" xmlns="http://www.w3.org/2000/svg">
<path d="M9.99999 5.19297C7.33983 5.19297 5.19296 7.33984 5.19296 10C5.19296 12.6602 7.33983 14.807 9.99999 14.807C12.6601 14.807 14.807 12.6602 14.807 10C14.807 7.33984 12.6601 5.19297 9.99999 5.19297ZM9.99999 13.1242C8.27968 13.1242 6.87577 11.7203 6.87577 10C6.87577 8.27969 8.27968 6.87578 9.99999 6.87578C11.7203 6.87578 13.1242 8.27969 13.1242 10C13.1242 11.7203 11.7203 13.1242 9.99999 13.1242ZM15.0039 3.87578C14.3828 3.87578 13.8812 4.37734 13.8812 4.99844C13.8812 5.61953 14.3828 6.12109 15.0039 6.12109C15.625 6.12109 16.1266 5.62187 16.1266 4.99844C16.1267 4.85095 16.0978 4.70489 16.0415 4.56859C15.9851 4.4323 15.9024 4.30847 15.7981 4.20419C15.6939 4.0999 15.57 4.01721 15.4337 3.96086C15.2974 3.90451 15.1514 3.87559 15.0039 3.87578ZM19.3703 10C19.3703 8.70625 19.382 7.42422 19.3094 6.13281C19.2367 4.63281 18.8945 3.30156 17.7976 2.20469C16.6984 1.10547 15.3695 0.765623 13.8695 0.692967C12.5758 0.620311 11.2937 0.63203 10.0023 0.63203C8.70858 0.63203 7.42655 0.620311 6.13515 0.692967C4.63515 0.765623 3.3039 1.10781 2.20702 2.20469C1.1078 3.3039 0.767958 4.63281 0.695302 6.13281C0.622645 7.42656 0.634364 8.70859 0.634364 10C0.634364 11.2914 0.622645 12.5758 0.695302 13.8672C0.767958 15.3672 1.11015 16.6984 2.20702 17.7953C3.30624 18.8945 4.63515 19.2344 6.13515 19.307C7.42889 19.3797 8.71093 19.368 10.0023 19.368C11.2961 19.368 12.5781 19.3797 13.8695 19.307C15.3695 19.2344 16.7008 18.8922 17.7976 17.7953C18.8969 16.6961 19.2367 15.3672 19.3094 13.8672C19.3844 12.5758 19.3703 11.2937 19.3703 10ZM17.3078 15.5266C17.1367 15.9531 16.9305 16.2719 16.6 16.6C16.2695 16.9305 15.9531 17.1367 15.5266 17.3078C14.2937 17.7977 11.3664 17.6875 9.99999 17.6875C8.63358 17.6875 5.7039 17.7977 4.47108 17.3102C4.04452 17.1391 3.72577 16.9328 3.39765 16.6023C3.06718 16.2719 2.86093 15.9555 2.68983 15.5289C2.20233 14.2937 2.31249 11.3664 2.31249 10C2.31249 8.63359 2.20233 5.7039 2.68983 4.47109C2.86093 4.04453 3.06718 3.72578 3.39765 3.39765C3.72811 3.06953 4.04452 2.86094 4.47108 2.68984C5.7039 2.20234 8.63358 2.3125 9.99999 2.3125C11.3664 2.3125 14.2961 2.20234 15.5289 2.68984C15.9555 2.86094 16.2742 3.06719 16.6023 3.39765C16.9328 3.72812 17.1391 4.04453 17.3101 4.47109C17.7976 5.7039 17.6875 8.63359 17.6875 10C17.6875 11.3664 17.7976 14.2937 17.3078 15.5266Z" fill="#EB5757"/>
</svg>
